<svg preserveAspectRatio="none" width="100%" height="100%" overflow="visible" style="display: block;" viewBox="0 0 18 18" fill="none" xmlns="http://www.w3.org/2000/svg">
<g id="Frame">
<path id="Vector" d="M9 1.5C9.41422 1.5 9.75 1.83579 9.75 2.25C9.75 2.66421 9.41422 3 9 3C5.68629 3 3 5.68629 3 9C3 12.3137 5.68629 15 9 15C12.3137 15 15 12.3137 15 9C15 8.58578 15.3358 8.25 15.75 8.25C16.1642 8.25 16.5 8.58578 16.5 9C16.5 13.1421 13.1421 16.5 9 16.5C4.85786 16.5 1.5 13.1421 1.5 9C1.5 4.85786 4.85786 1.5 9 1.5ZM9 4.5C9.41422 4.5 9.75 4.83579 9.75 5.25C9.75 5.66421 9.41422 6 9 6C7.34314 6 6 7.34314 6 9C6 10.6568 7.34314 12 9 12C10.6568 12 12 10.6568 12 9C12 8.58578 12.3358 8.25 12.75 8.25C13.1642 8.25 13.5 8.58578 13.5 9C13.5 11.4853 11.4853 13.5 9 13.5C6.51472 13.5 4.5 11.4853 4.5 9C4.5 6.51472 6.51472 4.5 9 4.5ZM13.9285 1.57544C14.1356 1.57545 14.3034 1.74337 14.3035 1.95044V3.32227C14.3037 3.52915 14.4716 3.69649 14.6785 3.69653H16.0496C16.2566 3.69653 16.4244 3.86456 16.4246 4.07153V4.75781L15.008 6.17431C14.7269 6.45539 14.3451 6.61368 13.9475 6.61377H12.4475L9.53025 9.53025C9.23737 9.82305 8.76263 9.82312 8.46975 9.53025C8.17703 9.23737 8.17695 8.76255 8.46975 8.46975L11.387 5.55323V4.05323C11.387 3.65558 11.5446 3.27395 11.8257 2.99267L13.2429 1.57544H13.9285Z" fill="var(--fill-0, #009688)"/>
</g>
</svg>
