<svg preserveAspectRatio="none" width="100%" height="100%" overflow="visible" style="display: block;" viewBox="0 0 339 401" fill="none" xmlns="http://www.w3.org/2000/svg">
<g id="Mask group">
<mask id="mask0_0_30" style="mask-type:alpha" maskUnits="userSpaceOnUse" x="0" y="0" width="339" height="401">
<rect id="Rectangle 19791" width="339" height="401" fill="var(--fill-0, #D9D9D9)"/>
</mask>
<g mask="url(#mask0_0_30)">
<g id="Union" filter="url(#filter0_f_0_30)">
<path d="M173.431 13.4464C205.548 4.83083 229.601 20.2325 251.218 39.9767C256.624 44.9147 261.891 50.1372 267.099 55.3341C272.313 60.5359 277.464 65.7106 282.66 70.5763C293.059 80.3148 303.559 88.7439 314.9 93.591C326.357 98.4874 338.466 102.468 350.338 106.427C362.192 110.379 373.814 114.311 384.217 119.097C405.042 128.679 421.178 141.784 424.632 165.572C426.348 177.391 424.891 186.618 421.312 194.463C417.742 202.291 412.085 208.685 405.513 214.876C392.321 227.301 375.486 238.919 363.268 259.878C357.191 270.304 353.978 282.295 351.459 294.75C348.949 307.156 347.118 320.101 343.802 332.181C340.477 344.293 335.629 355.675 327.005 365.067C318.372 374.468 306.01 381.814 287.765 385.949C269.552 390.078 256.718 389.007 246.844 384.63C236.98 380.258 230.217 372.648 224.035 364.024C211.623 346.706 201.463 325.308 173.417 315.292C159.292 310.248 145.018 307.278 131.285 304.914C117.585 302.556 104.35 300.791 92.4589 298.168C80.5525 295.541 69.8519 292.027 61.1639 286.104C52.4471 280.16 45.803 271.823 41.9676 259.649C34.2981 235.304 42.268 215.76 56.9676 197.646C64.309 188.599 73.3466 179.883 82.9823 171.082C92.6347 162.266 102.868 153.38 112.682 143.93C122.341 134.629 127.165 122.957 129.89 110.342C132.621 97.6947 133.224 84.2212 134.515 71.258C135.802 58.3518 137.771 45.9737 143.303 35.7892C148.861 25.5545 157.986 17.5895 173.431 13.4464ZM250.003 41.258C228.507 21.624 205.128 6.80615 173.971 15.1642C158.975 19.1868 150.245 26.8591 144.917 36.6691C139.561 46.5295 137.611 58.6048 136.327 71.4953C135.048 84.3287 134.43 97.9968 131.671 110.771C128.905 123.576 123.969 135.605 113.981 145.222C104.148 154.69 93.8579 163.629 84.2499 172.404C74.6252 181.195 65.6648 189.841 58.4071 198.784C43.9091 216.65 36.2777 235.606 43.705 259.182C47.4181 270.968 53.8067 278.956 62.1659 284.655C70.5539 290.375 80.9746 293.823 92.7958 296.431C104.633 299.042 117.732 300.784 131.536 303.16C145.307 305.531 159.706 308.523 173.984 313.622C202.746 323.893 213.309 346.012 225.512 363.037C231.637 371.583 238.155 378.851 247.543 383.013C256.922 387.17 269.314 388.289 287.294 384.213C305.243 380.144 317.271 372.955 325.633 363.85C334.004 354.734 338.756 343.638 342.044 331.66C345.341 319.65 347.135 306.891 349.674 294.343C352.202 281.844 355.458 269.627 361.681 258.953C374.062 237.713 391.245 225.798 404.226 213.57C410.74 207.435 416.21 201.221 419.646 193.688C423.074 186.172 424.504 177.283 422.831 165.759C419.506 142.862 404.057 130.166 383.493 120.704C373.201 115.969 361.677 112.068 349.809 108.11C337.959 104.159 325.768 100.152 314.224 95.2189C302.566 90.236 291.867 81.6163 281.429 71.841C276.206 66.9498 271.029 61.75 265.824 56.5568C260.615 51.359 255.374 46.1642 250.003 41.258ZM180.511 36.8361C208.641 29.2902 229.704 42.7884 248.603 60.0509C253.33 64.3685 257.936 68.9339 262.488 73.4757C267.045 78.0224 271.546 82.5433 276.085 86.7941C285.17 95.3026 294.334 102.657 304.225 106.885C314.232 111.162 324.811 114.639 335.187 118.099C345.546 121.553 355.71 124.991 364.808 129.177C383.025 137.559 397.17 149.038 400.197 169.885C401.699 180.232 400.425 188.317 397.288 195.194C394.159 202.054 389.204 207.653 383.456 213.068C371.914 223.939 357.222 234.073 346.555 252.373C341.252 261.469 338.447 271.935 336.246 282.818C334.055 293.651 332.452 304.976 329.553 315.537C326.644 326.131 322.402 336.097 314.849 344.321C307.287 352.556 296.462 358.987 280.498 362.606C264.565 366.217 253.322 365.284 244.661 361.445C236.01 357.611 230.083 350.938 224.677 343.395C213.816 328.242 204.963 309.587 180.498 300.85C168.163 296.445 155.695 293.851 143.695 291.785C131.729 289.725 120.153 288.181 109.758 285.888C99.3468 283.591 89.9769 280.516 82.3651 275.326C74.7246 270.117 68.9025 262.808 65.5428 252.145C58.8245 230.82 65.8102 213.701 78.6698 197.855C85.0912 189.942 92.9958 182.32 101.418 174.628C109.856 166.921 118.795 159.159 127.371 150.902C135.792 142.793 140.001 132.613 142.38 121.6C144.765 110.555 145.292 98.7917 146.422 87.4542C147.546 76.1739 149.267 65.3364 154.112 56.4152C158.985 47.4437 166.985 40.4645 180.511 36.8361ZM247.389 61.3312C228.61 44.179 208.22 31.2666 181.051 38.5548C167.974 42.0628 160.369 48.7493 155.726 57.296C151.057 65.8931 149.354 76.427 148.231 87.6915C147.115 98.8992 146.573 110.857 144.16 122.028C141.74 133.232 137.42 143.768 128.671 152.193C120.076 160.469 111.079 168.283 102.684 175.95C94.2737 183.632 86.4478 191.184 80.1102 198.993C67.4523 214.591 60.8036 231.122 67.2792 251.677C70.5166 261.953 76.0841 268.912 83.3671 273.878C90.679 278.864 99.7687 281.874 110.095 284.152C120.436 286.433 131.876 287.954 143.946 290.031C155.983 292.103 168.576 294.72 181.064 299.18C206.246 308.172 215.502 327.547 226.154 342.408C231.504 349.872 237.185 356.204 245.36 359.827C253.526 363.447 264.328 364.428 280.026 360.869C295.694 357.318 306.185 351.044 313.475 343.106C320.775 335.156 324.924 325.476 327.795 315.017C330.675 304.524 332.241 293.386 334.461 282.41C336.671 271.484 339.52 260.793 344.967 251.448C355.798 232.867 370.837 222.436 382.17 211.762C387.859 206.403 392.627 200.984 395.621 194.419C398.607 187.872 399.856 180.125 398.396 170.071C395.499 150.116 382.041 139.046 364.085 130.784C355.097 126.649 345.031 123.241 334.658 119.782C324.303 116.33 313.644 112.827 303.551 108.513C293.341 104.149 283.978 96.6042 274.853 88.0587C270.287 83.7826 265.761 79.2373 261.213 74.6994C256.66 70.1565 252.081 65.6172 247.389 61.3312ZM187.022 58.3488C211.485 51.7867 229.8 63.5339 246.2 78.5138C250.302 82.2606 254.298 86.2222 258.246 90.1613C262.199 94.1054 266.102 98.0249 270.037 101.71C277.915 109.087 285.849 115.455 294.407 119.112C303.081 122.82 312.251 125.834 321.253 128.835C330.236 131.831 339.058 134.815 346.956 138.449C362.774 145.727 375.088 155.711 377.723 173.851C379.028 182.844 377.921 189.88 375.19 195.866C372.468 201.836 368.157 206.704 363.168 211.403C353.143 220.846 340.424 229.617 331.182 245.471C326.593 253.344 324.163 262.407 322.254 271.843C320.355 281.23 318.962 291.064 316.446 300.229C313.921 309.427 310.235 318.089 303.668 325.241C297.091 332.403 287.68 337.991 273.814 341.134C259.98 344.27 250.198 343.464 242.653 340.12C235.118 336.78 229.962 330.971 225.268 324.423C215.834 311.261 208.183 295.128 187.01 287.567C176.321 283.75 165.516 281.5 155.11 279.709C144.738 277.924 134.689 276.584 125.669 274.594C116.633 272.601 108.487 269.929 101.865 265.414C95.2146 260.879 90.1485 254.517 87.2264 245.242C81.3833 226.695 87.4646 211.808 98.6317 198.047C104.207 191.177 111.068 184.562 118.373 177.89C125.695 171.202 133.446 164.473 140.883 157.312C148.165 150.3 151.808 141.494 153.868 131.955C155.935 122.384 156.39 112.194 157.371 102.352C158.346 92.5667 159.841 83.1471 164.056 75.3878C168.297 67.5783 175.261 61.5039 187.022 58.3488ZM244.985 79.7941C228.705 64.9243 211.064 53.764 187.562 60.0685C176.25 63.1032 169.68 68.8839 165.669 76.2687C161.631 83.7037 160.155 92.82 159.182 102.589C158.214 112.301 157.743 122.686 155.648 132.384C153.547 142.114 149.792 151.276 142.182 158.604C134.725 165.783 126.918 172.565 119.64 179.212C112.346 185.874 105.563 192.419 100.072 199.186C89.1065 212.698 83.3622 226.997 88.9628 244.775C91.7627 253.662 96.5749 259.674 102.868 263.965C109.19 268.276 117.055 270.882 126.006 272.857C134.972 274.835 144.885 276.153 155.361 277.956C165.804 279.754 176.734 282.025 187.576 285.897C209.464 293.713 217.52 310.566 226.745 323.437C231.381 329.905 236.293 335.373 243.352 338.502C250.402 341.627 259.742 342.482 273.343 339.399C286.912 336.323 295.989 330.891 302.295 324.025C308.609 317.148 312.202 308.772 314.689 299.709C317.186 290.613 318.541 280.964 320.469 271.435C322.386 261.955 324.861 252.667 329.595 244.546C339 228.411 352.067 219.345 361.882 210.1C366.812 205.456 370.936 200.766 373.524 195.092C376.104 189.435 377.186 182.738 375.923 174.037C373.418 156.788 361.79 147.214 346.233 140.056C338.445 136.472 329.722 133.519 320.724 130.519C311.743 127.524 302.492 124.485 293.731 120.74C284.855 116.947 276.722 110.39 268.805 102.976C264.842 99.2651 260.916 95.3203 256.972 91.3849C253.022 87.4446 249.053 83.5095 244.985 79.7941ZM193.036 78.216C214.111 72.5624 229.887 82.6915 243.979 95.5636C247.505 98.7835 250.939 102.187 254.329 105.569C257.724 108.957 261.074 112.322 264.451 115.485C271.213 121.817 278.014 127.272 285.341 130.403C292.783 133.584 300.652 136.171 308.384 138.749C316.098 141.321 323.682 143.886 330.473 147.011C344.075 153.269 354.698 161.872 356.97 177.513C358.094 185.258 357.141 191.324 354.785 196.488C352.437 201.636 348.722 205.828 344.433 209.868C335.81 217.991 324.912 225.502 316.987 239.097C313.056 245.84 310.971 253.608 309.333 261.708C307.704 269.759 306.505 278.218 304.344 286.094C302.173 294.002 299.001 301.462 293.343 307.623C287.675 313.795 279.57 318.604 267.641 321.308C255.744 324.005 247.313 323.316 240.799 320.429C234.294 317.546 229.849 312.532 225.814 306.903C217.698 295.579 211.155 281.776 193.022 275.301C183.854 272.027 174.584 270.096 165.651 268.559C156.751 267.027 148.111 265.874 140.361 264.164C132.596 262.451 125.581 260.153 119.873 256.261C114.136 252.349 109.767 246.861 107.249 238.868C102.214 222.886 107.46 210.061 117.064 198.226C121.858 192.319 127.756 186.632 134.03 180.902C140.321 175.155 146.973 169.381 153.358 163.233C159.589 157.233 162.71 149.696 164.476 141.518C166.25 133.307 166.64 124.57 167.483 116.109C168.321 107.704 169.606 99.5937 173.237 92.9074C176.896 86.1708 182.904 80.934 193.036 78.216ZM242.765 96.8439C228.793 84.0821 213.691 74.538 193.576 79.9337C183.893 82.5314 178.278 87.4753 174.849 93.7873C171.394 100.149 170.129 107.957 169.293 116.345C168.463 124.676 168.057 133.609 166.257 141.946C164.449 150.316 161.216 158.209 154.657 164.525C148.253 170.691 141.544 176.518 135.298 182.224C129.034 187.944 123.216 193.561 118.506 199.364C109.103 210.951 104.194 223.189 108.986 238.402C111.382 246.006 115.496 251.145 120.875 254.813C126.283 258.5 133.019 260.733 140.699 262.428C148.395 264.126 156.899 265.256 165.902 266.806C174.873 268.35 184.269 270.301 193.591 273.63C212.438 280.361 219.384 294.885 227.291 305.917C231.268 311.466 235.469 316.138 241.498 318.811C247.517 321.479 255.506 322.215 267.17 319.571C278.802 316.935 286.575 312.281 291.971 306.405C297.375 300.52 300.452 293.346 302.586 285.572C304.729 277.766 305.89 269.493 307.548 261.3C309.195 253.156 311.323 245.164 315.398 238.172C323.487 224.296 334.733 216.489 343.147 208.564C347.377 204.579 350.907 200.565 353.12 195.713C355.325 190.878 356.251 185.151 355.169 177.7C353.027 162.95 343.09 154.757 329.749 148.618C323.068 145.544 315.584 143.01 307.855 140.433C300.145 137.862 292.194 135.249 284.665 132.031C277.02 128.764 270.021 123.119 263.22 116.749C259.815 113.561 256.44 110.172 253.054 106.793C249.662 103.409 246.255 100.032 242.765 96.8439ZM197.617 93.3517C216.112 88.3904 229.953 97.2866 242.288 108.553C245.374 111.371 248.379 114.351 251.345 117.31C254.315 120.273 257.244 123.215 260.196 125.98C266.109 131.517 272.044 136.275 278.433 139.006C284.938 141.786 291.816 144.047 298.581 146.303C305.328 148.552 311.966 150.799 317.913 153.535C329.827 159.017 339.163 166.566 341.158 180.304C342.144 187.097 341.308 192.424 339.238 196.962C337.176 201.483 333.916 205.161 330.161 208.698C322.605 215.816 313.093 222.368 306.172 234.241C302.742 240.124 300.922 246.904 299.489 253.986C298.066 261.02 297.015 268.431 295.123 275.324C293.222 282.251 290.441 288.794 285.476 294.2C280.502 299.617 273.391 303.833 262.938 306.202C252.517 308.564 245.116 307.965 239.387 305.426C233.667 302.891 229.763 298.484 226.23 293.556C219.118 283.632 213.42 271.604 197.604 265.956C189.595 263.096 181.494 261.408 173.682 260.064C165.904 258.725 158.337 257.715 151.555 256.219C144.757 254.719 138.604 252.704 133.593 249.287C128.552 245.85 124.714 241.028 122.504 234.013C118.084 219.985 122.695 208.729 131.108 198.361C135.306 193.188 140.47 188.21 145.959 183.196C151.465 178.168 157.279 173.12 162.863 167.743C168.293 162.515 171.016 155.945 172.558 148.803C174.108 141.629 174.447 133.998 175.185 126.589C175.918 119.237 177.045 112.124 180.232 106.255C183.447 100.336 188.726 95.7368 197.617 93.3517ZM241.073 109.833C228.859 98.6773 215.691 90.3668 198.157 95.0705C189.716 97.3351 184.829 101.64 181.845 107.135C178.833 112.68 177.728 119.49 176.997 126.826C176.272 134.106 175.916 141.931 174.339 149.232C172.755 156.564 169.92 163.49 164.163 169.034C158.56 174.43 152.688 179.532 147.226 184.52C141.749 189.523 136.663 194.43 132.549 199.5C124.337 209.62 120.064 220.288 124.241 233.546C126.329 240.174 129.912 244.646 134.595 247.839C139.306 251.052 145.18 253.002 151.892 254.483C158.621 255.967 166.051 256.954 173.933 258.311C181.782 259.662 190.008 261.37 198.172 264.285C214.702 270.188 220.804 282.938 227.707 292.569C231.182 297.418 234.842 301.484 240.085 303.808C245.319 306.128 252.279 306.776 262.467 304.467C272.623 302.165 279.402 298.104 284.104 292.983C288.816 287.852 291.501 281.595 293.365 274.804C295.238 267.98 296.252 260.755 297.704 253.579C299.146 246.453 301.01 239.449 304.584 233.318C311.669 221.162 321.528 214.314 328.875 207.394C332.571 203.912 335.646 200.412 337.573 196.187C339.493 191.978 340.302 186.989 339.358 180.49C337.493 167.644 328.843 160.503 317.189 155.141C311.353 152.455 304.812 150.241 298.052 147.986C291.308 145.738 284.349 143.452 277.758 140.635C271.051 137.768 264.916 132.818 258.964 127.244C255.984 124.454 253.031 121.488 250.069 118.533C247.103 115.573 244.124 112.62 241.073 109.833ZM202.014 107.873C218.033 103.576 230.017 111.29 240.665 121.016C243.329 123.449 245.923 126.021 248.481 128.573C251.044 131.13 253.568 133.665 256.113 136.048C261.211 140.822 266.317 144.914 271.807 147.26C277.411 149.655 283.338 151.605 289.175 153.551C294.993 155.491 300.726 157.43 305.863 159.793C316.158 164.53 324.258 171.07 325.987 182.981C326.841 188.86 326.118 193.478 324.322 197.415C322.534 201.335 319.709 204.52 316.466 207.575C309.933 213.728 301.754 219.36 295.795 229.582C292.847 234.64 291.279 240.472 290.044 246.578C288.819 252.635 287.91 259.04 286.276 264.99C284.634 270.974 282.229 276.637 277.929 281.319C273.619 286.012 267.463 289.66 258.427 291.708C249.421 293.749 243.006 293.236 238.03 291.03C233.064 288.829 229.681 285.005 226.63 280.748C220.48 272.169 215.593 261.842 202 256.988C195.102 254.525 188.123 253.072 181.388 251.912C174.685 250.759 168.15 249.885 162.296 248.594C156.426 247.299 151.099 245.557 146.756 242.596C142.384 239.615 139.056 235.43 137.141 229.353C133.313 217.2 137.313 207.451 144.584 198.491C148.211 194.022 152.671 189.723 157.406 185.398C162.158 181.057 167.169 176.707 171.984 172.07C176.645 167.583 178.986 161.94 180.313 155.792C181.648 149.613 181.94 143.045 182.578 136.645C183.21 130.302 184.182 124.145 186.943 119.061C189.732 113.926 194.314 109.939 202.014 107.873ZM239.45 122.296C228.923 112.681 217.612 105.553 202.554 109.593C195.303 111.538 191.115 115.231 188.557 119.942C185.971 124.702 185.018 130.555 184.388 136.882C183.763 143.152 183.456 149.915 182.094 156.221C180.725 162.559 178.272 168.559 173.283 173.362C168.449 178.017 163.379 182.42 158.672 186.72C153.947 191.035 149.567 195.264 146.023 199.63C138.954 208.342 135.293 217.503 138.879 228.886C140.671 234.576 143.744 238.41 147.759 241.148C151.802 243.904 156.849 245.582 162.633 246.858C168.433 248.137 174.832 248.987 181.638 250.158C188.411 251.324 195.515 252.8 202.567 255.319C216.875 260.428 222.166 271.474 228.106 279.762C231.1 283.939 234.24 287.422 238.729 289.412C243.21 291.398 249.184 291.961 257.955 289.973C266.695 287.992 272.519 284.5 276.557 280.103C280.603 275.696 282.913 270.318 284.518 264.47C286.133 258.588 287.006 252.37 288.26 246.17C289.504 240.02 291.114 233.962 294.207 228.656C300.33 218.153 308.857 212.226 315.18 206.271C318.364 203.271 321.004 200.265 322.657 196.64C324.302 193.033 324.997 188.753 324.186 183.167C322.586 172.148 315.173 166.016 305.14 161.4C300.113 159.087 294.477 157.178 288.644 155.234C282.83 153.295 276.822 151.32 271.131 148.888C265.324 146.406 260.018 142.124 254.882 137.314C252.31 134.905 249.76 132.345 247.206 129.796C244.647 127.243 242.08 124.698 239.45 122.296ZM208.685 129.915C220.947 126.626 230.115 132.545 238.202 139.932C240.226 141.78 242.195 143.734 244.135 145.669C246.079 147.609 247.99 149.527 249.916 151.331C253.776 154.946 257.623 158.025 261.746 159.787C265.985 161.599 270.469 163.074 274.896 164.55C279.306 166.02 283.666 167.494 287.574 169.292C295.411 172.898 301.634 177.906 302.961 187.044C303.613 191.537 303.062 195.08 301.682 198.105C300.311 201.112 298.146 203.549 295.68 205.872C290.702 210.561 284.543 214.794 280.045 222.51C277.827 226.314 276.643 230.708 275.708 235.332C274.782 239.907 274.089 244.787 272.849 249.307C271.599 253.86 269.763 258.187 266.473 261.771C263.173 265.364 258.465 268.148 251.578 269.709C244.722 271.263 239.805 270.88 235.973 269.182C232.15 267.487 229.555 264.546 227.235 261.31C222.548 254.77 218.891 247.028 208.672 243.379C203.46 241.518 198.184 240.418 193.082 239.54C188.013 238.668 183.042 238.003 178.598 237.023C174.137 236.039 170.064 234.71 166.735 232.44C163.377 230.15 160.824 226.935 159.357 222.28C156.425 212.974 159.498 205.512 165.035 198.689C167.795 195.288 171.186 192.02 174.777 188.739C178.385 185.444 182.178 182.152 185.826 178.639C189.32 175.274 191.082 171.039 192.084 166.402C193.092 161.732 193.311 156.775 193.796 151.907C194.275 147.097 195.015 142.392 197.13 138.498C199.272 134.554 202.794 131.496 208.685 129.915ZM236.987 141.213C229.021 133.937 220.526 128.603 209.225 131.635C203.783 133.095 200.656 135.859 198.744 139.379C196.805 142.949 196.084 147.351 195.606 152.146C195.134 156.884 194.899 162.034 193.863 166.83C192.82 171.659 190.948 176.251 187.126 179.931C183.458 183.462 179.609 186.808 176.045 190.063C172.464 193.333 169.152 196.529 166.475 199.827C161.14 206.402 158.405 213.276 161.095 221.814C162.439 226.081 164.738 228.946 167.738 230.991C170.767 233.057 174.559 234.321 178.934 235.286C183.325 236.255 188.16 236.896 193.333 237.786C198.472 238.671 203.874 239.792 209.239 241.708C220.173 245.613 224.233 254.076 228.712 260.324C230.975 263.481 233.326 266.08 236.673 267.564C240.01 269.043 244.485 269.475 251.106 267.974C257.697 266.48 262.072 263.852 265.1 260.554C268.138 257.246 269.878 253.204 271.091 248.786C272.312 244.336 272.969 239.643 273.923 234.926C274.867 230.258 276.094 225.638 278.456 221.585C283.118 213.587 289.625 209.058 294.393 204.567C296.8 202.299 298.779 200.041 300.016 197.328C301.245 194.634 301.77 191.43 301.16 187.232C299.963 178.985 294.426 174.384 286.85 170.899C283.053 169.151 278.792 167.709 274.368 166.234C269.962 164.764 265.397 163.265 261.071 161.416C256.63 159.518 252.584 156.248 248.684 152.596C246.731 150.767 244.795 148.824 242.859 146.893C240.919 144.957 238.977 143.03 236.987 141.213ZM214.813 150.162C223.623 147.799 230.204 152.069 235.939 157.308C237.375 158.619 238.773 160.005 240.143 161.373C241.519 162.746 242.866 164.098 244.224 165.369C246.947 167.92 249.638 170.07 252.507 171.296C255.491 172.571 258.649 173.609 261.782 174.653C264.898 175.692 267.995 176.74 270.774 178.019C276.353 180.586 280.853 184.186 281.81 190.777C282.278 193.996 281.884 196.55 280.887 198.737C279.897 200.907 278.34 202.657 276.588 204.307C273.038 207.651 268.734 210.601 265.578 216.015C264.031 218.668 263.2 221.742 262.54 225.005C261.89 228.219 261.394 231.695 260.515 234.901C259.625 238.139 258.315 241.242 255.951 243.816C253.578 246.4 250.2 248.391 245.288 249.504C240.407 250.61 236.865 250.347 234.083 249.113C231.311 247.885 229.44 245.755 227.792 243.455C224.447 238.789 221.92 233.421 214.8 230.878C211.138 229.57 207.427 228.796 203.825 228.176C200.256 227.562 196.72 227.089 193.57 226.394C190.405 225.695 187.485 224.746 185.088 223.111C182.661 221.457 180.817 219.133 179.763 215.785C177.654 209.093 179.877 203.731 183.821 198.87C185.785 196.451 188.193 194.13 190.734 191.81C193.292 189.474 195.964 187.153 198.541 184.672C200.963 182.34 202.192 179.398 202.894 176.147C203.603 172.864 203.756 169.389 204.1 165.929C204.44 162.525 204.966 159.153 206.487 156.353C208.036 153.502 210.583 151.297 214.813 150.162ZM234.724 158.589C229.11 153.461 223.202 149.775 215.353 151.881C211.571 152.896 209.418 154.807 208.1 157.234C206.755 159.71 206.25 162.778 205.912 166.165C205.58 169.496 205.411 173.166 204.675 176.575C203.931 180.017 202.591 183.316 199.841 185.964C197.245 188.464 194.514 190.836 192.001 193.131C189.471 195.442 187.141 197.692 185.262 200.009C181.519 204.621 179.634 209.395 181.5 215.319C182.432 218.279 184.021 220.253 186.09 221.663C188.188 223.093 190.828 223.978 193.909 224.657C197.005 225.34 200.404 225.79 204.076 226.422C207.715 227.048 211.552 227.846 215.368 229.208C223.203 232.006 226.133 238.094 229.268 242.469C230.86 244.689 232.486 246.477 234.782 247.495C237.069 248.509 240.169 248.822 244.816 247.769C249.432 246.722 252.477 244.886 254.578 242.598C256.688 240.3 257.904 237.483 258.756 234.38C259.617 231.243 260.077 227.953 260.756 224.597C261.425 221.29 262.297 217.99 263.988 215.089C267.308 209.393 271.961 206.149 275.302 203.002C276.995 201.407 278.366 199.836 279.221 197.962C280.068 196.105 280.434 193.89 280.01 190.964C279.182 185.264 275.368 182.072 270.051 179.625C267.382 178.397 264.383 177.381 261.253 176.337C258.141 175.299 254.902 174.235 251.831 172.923C248.645 171.561 245.755 169.222 242.992 166.635C241.607 165.338 240.235 163.959 238.868 162.595C237.496 161.226 236.126 159.869 234.724 158.589ZM220.456 168.799C226.088 167.288 230.286 170.042 233.856 173.303C234.751 174.12 235.621 174.981 236.469 175.827C237.321 176.678 238.15 177.51 238.984 178.292C240.661 179.862 242.288 181.155 244.002 181.888C245.831 182.67 247.769 183.308 249.711 183.955C251.635 184.597 253.569 185.249 255.309 186.05C258.81 187.661 261.725 189.966 262.342 194.213C262.639 196.26 262.39 197.904 261.744 199.319C261.106 200.718 260.107 201.834 259.013 202.865C256.777 204.971 254.181 206.74 252.261 210.035C251.332 211.629 250.826 213.488 250.42 215.497C250.023 217.458 249.709 219.644 249.161 221.64C248.604 223.669 247.775 225.642 246.265 227.286C244.745 228.941 242.593 230.202 239.498 230.903C236.434 231.598 234.159 231.444 232.344 230.64C230.538 229.839 229.334 228.457 228.304 227.02C226.195 224.078 224.71 220.894 220.442 219.37C218.207 218.572 215.934 218.098 213.714 217.716C211.526 217.339 209.314 217.042 207.355 216.61C205.381 216.174 203.521 215.575 201.98 214.525C200.411 213.455 199.222 211.95 198.547 209.806C197.197 205.52 198.635 202.091 201.113 199.037C202.344 197.521 203.849 196.071 205.423 194.634C207.013 193.181 208.655 191.757 210.245 190.226C211.681 188.843 212.419 187.092 212.846 185.117C213.279 183.111 213.371 180.998 213.587 178.833C213.797 176.725 214.126 174.582 215.1 172.788C216.102 170.944 217.753 169.524 220.456 168.799ZM232.641 174.583C229.192 171.432 225.667 169.265 220.996 170.518C218.742 171.122 217.484 172.248 216.713 173.668C215.914 175.138 215.606 176.978 215.397 179.07C215.195 181.106 215.087 183.413 214.627 185.546C214.159 187.711 213.308 189.819 211.545 191.518C209.936 193.067 208.236 194.545 206.69 195.957C205.128 197.384 203.701 198.763 202.555 200.176C200.278 202.981 199.176 205.821 200.284 209.338C200.838 211.095 201.772 212.25 202.983 213.076C204.224 213.922 205.803 214.456 207.692 214.873C209.597 215.293 211.674 215.568 213.965 215.962C216.223 216.351 218.619 216.847 221.009 217.7C225.991 219.48 227.881 223.382 229.78 226.032C230.754 227.391 231.713 228.432 233.043 229.022C234.363 229.607 236.196 229.81 239.026 229.168C241.825 228.534 243.645 227.428 244.892 226.069C246.15 224.7 246.882 223.012 247.402 221.118C247.931 219.191 248.208 217.192 248.634 215.089C249.049 213.035 249.598 210.952 250.672 209.11C252.757 205.533 255.7 203.469 257.726 201.561C258.762 200.585 259.575 199.648 260.078 198.545C260.573 197.459 260.795 196.153 260.541 194.4C260.054 191.044 257.825 189.148 254.586 187.657C252.956 186.908 251.12 186.285 249.182 185.639C247.261 184.998 245.241 184.335 243.325 183.516C241.294 182.647 239.469 181.164 237.753 179.557C236.891 178.75 236.037 177.893 235.193 177.051C234.344 176.204 233.502 175.369 232.641 174.583ZM224.535 182.277C227.869 181.383 230.347 183.039 232.351 184.87C232.855 185.33 233.341 185.813 233.81 186.281C234.285 186.755 234.739 187.21 235.195 187.638C236.115 188.499 236.972 189.173 237.85 189.548C238.844 189.973 239.9 190.321 240.98 190.681C242.043 191.035 243.136 191.405 244.125 191.86C246.122 192.779 247.89 194.146 248.261 196.697C248.435 197.897 248.291 198.884 247.9 199.741C247.517 200.582 246.922 201.24 246.303 201.823C245.017 203.034 243.656 203.948 242.629 205.71C242.146 206.538 241.875 207.518 241.652 208.621C241.439 209.675 241.258 210.928 240.95 212.049C240.633 213.203 240.152 214.36 239.26 215.332C238.357 216.315 237.091 217.049 235.31 217.452C233.561 217.849 232.202 217.774 231.086 217.279C229.979 216.789 229.257 215.947 228.674 215.133C227.459 213.438 226.726 211.836 224.521 211.049C223.317 210.619 222.087 210.361 220.865 210.151C219.676 209.946 218.42 209.776 217.323 209.534C216.21 209.289 215.117 208.942 214.197 208.315C213.248 207.668 212.533 206.756 212.132 205.482C211.33 202.935 212.202 200.904 213.62 199.157C214.32 198.295 215.172 197.476 216.046 196.678C216.937 195.864 217.833 195.086 218.71 194.242C219.432 193.547 219.816 192.656 220.043 191.606C220.277 190.522 220.325 189.395 220.447 188.167C220.564 186.996 220.751 185.74 221.33 184.674C221.936 183.558 222.938 182.706 224.535 182.277ZM231.136 186.151C229.251 184.43 227.449 183.359 225.075 183.996C223.927 184.304 223.318 184.863 222.942 185.555C222.539 186.297 222.372 187.248 222.257 188.403C222.147 189.502 222.085 190.824 221.824 192.034C221.556 193.276 221.06 194.523 220.01 195.534C219.114 196.397 218.158 197.228 217.311 198.001C216.449 198.789 215.676 199.537 215.059 200.296C213.843 201.795 213.309 203.238 213.869 205.015C214.148 205.901 214.608 206.462 215.199 206.865C215.819 207.288 216.632 207.57 217.66 207.797C218.703 208.027 219.824 208.174 221.116 208.397C222.375 208.613 223.732 208.893 225.09 209.378C228.009 210.421 229.145 212.744 230.15 214.147C230.677 214.881 231.155 215.383 231.785 215.662C232.406 215.937 233.323 216.059 234.838 215.716C236.322 215.379 237.256 214.802 237.887 214.115C238.526 213.419 238.912 212.547 239.191 211.528C239.48 210.476 239.626 209.41 239.868 208.213C240.1 207.066 240.414 205.861 241.041 204.785C242.232 202.742 243.94 201.532 245.015 200.519C245.576 199.991 245.986 199.511 246.234 198.966C246.475 198.438 246.591 197.791 246.46 196.885C246.219 195.225 245.138 194.264 243.401 193.465C242.523 193.061 241.528 192.723 240.451 192.364C239.392 192.011 238.255 191.639 237.175 191.177C235.979 190.666 234.923 189.801 233.964 188.902C233.48 188.45 233.001 187.97 232.535 187.505C232.065 187.036 231.604 186.579 231.136 186.151Z" fill="var(--fill-0, white)" fill-opacity="0.8"/>
</g>
</g>
</g>
<defs>
<filter id="filter0_f_0_30" x="36.9994" y="9.00019" width="390.351" height="381.541" filterUnits="userSpaceOnUse" color-interpolation-filters="sRGB">
<feFlood flood-opacity="0" result="BackgroundImageFix"/>
<feBlend mode="normal" in="SourceGraphic" in2="BackgroundImageFix" result="shape"/>
<feGaussianBlur stdDeviation="1" result="effect1_foregroundBlur_0_30"/>
</filter>
</defs>
</svg>
