<svg width="20" height="20" viewBox="0 0 20 20" fill="none" xmlns="http://www.w3.org/2000/svg">
<path d="M16.6666 10.0013V7.27139C16.6666 6.88149 16.5299 6.50394 16.2803 6.20441L12.9997 2.26766C12.683 1.88767 12.2139 1.66797 11.7193 1.66797H9.99992H6.66659C4.82564 1.66797 3.33325 3.16035 3.33325 5.0013V15.0013C3.33325 16.8423 4.82563 18.3346 6.66658 18.3346H13.5416C15.2675 18.3346 16.6666 16.9355 16.6666 15.2096" stroke="#BBC1C9" stroke-width="1.25" stroke-linecap="round"/>
<path d="M12.4998 2.08594V5.0026C12.4998 5.92308 13.2459 6.66927 14.1664 6.66927H16.2498" stroke="#BBC1C9" stroke-width="1.25" stroke-linecap="round"/>
<path d="M5.83301 9.16797H12.4997" stroke="#BBC1C9" stroke-width="1.25" stroke-linecap="round"/>
<path d="M5.83301 5.83594H9.16634" stroke="#BBC1C9" stroke-width="1.25" stroke-linecap="round"/>
<path d="M16.6665 12.5013L10.8332 12.5013M10.8332 12.5013L12.7449 14.168M10.8332 12.5013L12.7449 10.8346" stroke="#BBC1C9" stroke-width="1.25" stroke-linecap="round" stroke-linejoin="round"/>
</svg>
