<svg preserveAspectRatio="none" width="100%" height="100%" overflow="visible" style="display: block;" viewBox="0 0 319 195" fill="none" xmlns="http://www.w3.org/2000/svg">
<path id="Subtract" d="M319 166C319 172.627 313.627 178 307 178H127C120.373 178 115.24 183.986 110.938 189.028C107.82 192.683 103.181 195 98 195C92.8193 195 88.1798 192.683 85.0617 189.028C80.7602 183.986 75.6274 178 69 178H12C5.37258 178 0 172.627 0 166V12C0 5.37258 5.37258 0 12 0H229C235.627 0 240.76 5.98593 245.062 11.0278C248.18 14.6826 252.819 17 258 17C263.181 17 267.82 14.6826 270.938 11.0278C275.24 5.98593 280.373 0 287 0H307C313.627 0 319 5.37258 319 12V166Z" fill="var(--fill-0, white)"/>
</svg>
