<svg preserveAspectRatio="none" width="100%" height="100%" overflow="visible" style="display: block;" viewBox="0 0 251.08 297" fill="none" xmlns="http://www.w3.org/2000/svg">
<g id="Mask group">
<mask id="mask0_0_15" style="mask-type:alpha" maskUnits="userSpaceOnUse" x="0" y="0" width="252" height="297">
<rect id="Rectangle 19791" width="251.08" height="297" fill="var(--fill-0, #D9D9D9)"/>
</mask>
<g mask="url(#mask0_0_15)">
<g id="Union" filter="url(#filter0_f_0_15)">
<path d="M128.451 9.9581C152.239 3.57703 170.054 14.986 186.064 29.6095C190.068 33.2667 193.97 37.1335 197.827 40.9825C201.689 44.8352 205.505 48.6678 209.353 52.2716C217.055 59.4842 224.831 65.7275 233.231 69.3175C241.716 72.944 250.685 75.8925 259.478 78.8243C268.257 81.7517 276.865 84.6642 284.57 88.2091C299.994 95.3059 311.945 105.012 314.503 122.631C315.774 131.384 314.696 138.219 312.045 144.029C309.401 149.827 305.211 154.562 300.343 159.148C290.573 168.35 278.104 176.955 269.055 192.478C264.554 200.199 262.174 209.081 260.308 218.306C258.449 227.494 257.093 237.082 254.637 246.028C252.174 255 248.584 263.43 242.197 270.386C235.802 277.349 226.646 282.79 213.133 285.853C199.643 288.91 190.139 288.118 182.825 284.876C175.519 281.638 170.51 276.002 165.931 269.613C156.738 256.787 149.214 240.938 128.442 233.521C117.98 229.785 107.408 227.585 97.2366 225.834C87.0897 224.087 77.2866 222.78 68.4797 220.837C59.6613 218.892 51.7348 216.29 45.3001 211.902C38.8443 207.5 33.9248 201.325 31.0842 192.309C25.4038 174.278 31.3063 159.802 42.1936 146.386C47.6309 139.686 54.3246 133.23 61.4612 126.712C68.6102 120.182 76.1888 113.601 83.4573 106.602C90.6116 99.7127 94.1854 91.0672 96.2034 81.7237C98.2264 72.3568 98.6725 62.3784 99.6292 52.7774C100.582 43.2184 102.041 34.0501 106.138 26.5069C110.255 18.9267 117.013 13.0266 128.451 9.9581ZM185.164 30.5577C169.244 16.0159 151.927 5.04117 128.851 11.2315C117.745 14.2109 111.279 19.8936 107.332 27.1593C103.366 34.4622 101.921 43.4052 100.97 52.9522C100.023 62.4574 99.5651 72.5811 97.5217 82.0421C95.4733 91.5266 91.8172 100.436 84.4202 107.559C77.1373 114.571 69.5157 121.192 62.3997 127.692C55.2713 134.202 48.6353 140.606 43.26 147.23C32.5222 160.462 26.8697 174.501 32.3704 191.962C35.1205 200.691 39.852 206.608 46.0432 210.829C52.2559 215.065 59.9742 217.619 68.7297 219.551C77.4967 221.485 87.1986 222.775 97.4221 224.535C107.621 226.291 118.287 228.508 128.863 232.284C150.164 239.891 157.987 256.273 167.025 268.883C171.561 275.212 176.39 280.595 183.343 283.677C190.289 286.756 199.467 287.585 212.783 284.567C226.077 281.553 234.987 276.229 241.18 269.485C247.38 262.734 250.899 254.515 253.334 245.644C255.776 236.748 257.106 227.299 258.986 218.005C260.858 208.747 263.27 199.699 267.878 191.793C277.049 176.061 289.776 167.237 299.391 158.181C304.215 153.637 308.266 149.033 310.811 143.454C313.349 137.888 314.41 131.304 313.17 122.769C310.708 105.81 299.264 96.4074 284.033 89.3995C276.411 85.8921 267.875 83.0023 259.085 80.0714C250.308 77.1449 241.279 74.1775 232.73 70.5235C224.095 66.8329 216.171 60.449 208.44 53.2091C204.571 49.5865 200.738 45.735 196.883 41.8888C193.025 38.039 189.143 34.1916 185.164 30.5577ZM133.696 27.2833C154.53 21.6944 170.13 31.6912 184.128 44.4767C187.629 47.6745 191.04 51.0561 194.411 54.42C197.786 57.7875 201.121 61.135 204.483 64.2833C211.212 70.5851 217.998 76.033 225.324 79.1642C232.736 82.3318 240.571 84.9072 248.256 87.4698C255.928 90.028 263.457 92.5754 270.196 95.6759C283.688 101.884 294.165 110.385 296.406 125.825C297.519 133.489 296.574 139.477 294.25 144.57C291.933 149.651 288.263 153.799 284.006 157.809C275.458 165.86 264.577 173.367 256.676 186.92C252.749 193.657 250.671 201.408 249.04 209.468C247.417 217.492 246.231 225.88 244.083 233.702C241.929 241.549 238.787 248.93 233.193 255.022C227.592 261.121 219.575 265.883 207.751 268.564C195.951 271.238 187.623 270.547 181.208 267.704C174.801 264.864 170.412 259.922 166.407 254.335C158.364 243.112 151.806 229.295 133.686 222.824C124.55 219.562 115.316 217.64 106.428 216.11C97.565 214.585 88.9915 213.441 81.2922 211.742C73.5815 210.041 66.6418 207.765 61.0042 203.921C55.3452 200.062 51.0325 194.649 48.5442 186.751C43.5683 170.957 48.7426 158.278 58.2669 146.541C63.0228 140.681 68.8778 135.035 75.1155 129.338C81.3654 123.63 87.9867 117.88 94.3381 111.764C100.575 105.758 103.693 98.2192 105.454 90.0626C107.221 81.882 107.61 73.1696 108.447 64.7726C109.279 56.4178 110.556 48.3917 114.145 41.7843C117.754 35.1397 123.678 29.9707 133.696 27.2833ZM183.229 45.4249C169.32 32.721 154.218 23.1567 134.095 28.5548C124.41 31.153 118.776 36.1055 115.338 42.4356C111.88 48.8031 110.619 56.6061 109.787 64.9493C108.96 73.25 108.56 82.1059 106.773 90.38C104.981 98.678 101.78 106.481 95.3001 112.721C88.9343 118.85 82.2711 124.639 76.054 130.317C69.8246 136.007 64.0281 141.6 59.3342 147.384C49.9591 158.937 45.0352 171.18 49.8313 186.404C52.2291 194.015 56.3523 199.169 61.7463 202.847C67.162 206.539 73.8942 208.769 81.5422 210.456C89.2017 212.146 97.6747 213.273 106.615 214.812C115.53 216.346 124.856 218.283 134.106 221.586C152.756 228.246 159.611 242.598 167.5 253.605C171.462 259.133 175.671 263.821 181.726 266.505C187.774 269.186 195.774 269.913 207.402 267.277C219.006 264.647 226.777 260 232.177 254.12C237.583 248.233 240.655 241.063 242.781 233.317C244.915 225.545 246.074 217.295 247.718 209.166C249.355 201.073 251.465 193.155 255.499 186.234C263.522 172.473 274.661 164.748 283.054 156.842C287.267 152.873 290.799 148.858 293.017 143.996C295.229 139.147 296.154 133.409 295.073 125.963C292.926 111.183 282.958 102.984 269.659 96.8653C263.002 93.8024 255.547 91.2787 247.864 88.7169C240.194 86.1597 232.3 83.5652 224.824 80.3702C217.263 77.1384 210.328 71.5491 203.57 65.2198C200.188 62.0527 196.836 58.6863 193.467 55.3253C190.095 51.9607 186.704 48.5992 183.229 45.4249ZM138.519 43.2159C156.637 38.3559 170.201 47.0557 182.348 58.1505C185.386 60.9257 188.346 63.8608 191.27 66.7784C194.197 69.6995 197.088 72.6018 200.002 75.3312C205.837 80.7953 211.714 85.5107 218.053 88.2198C224.477 90.9654 231.268 93.198 237.935 95.421C244.589 97.6396 251.124 99.8503 256.974 102.542C268.689 107.932 277.809 115.327 279.76 128.763C280.727 135.424 279.907 140.634 277.885 145.068C275.868 149.49 272.675 153.095 268.98 156.576C261.555 163.57 252.135 170.066 245.29 181.808C241.891 187.639 240.092 194.35 238.678 201.339C237.272 208.291 236.24 215.576 234.376 222.364C232.506 229.177 229.776 235.593 224.911 240.89C220.04 246.194 213.069 250.331 202.8 252.659C192.553 254.982 185.309 254.386 179.721 251.909C174.14 249.436 170.321 245.133 166.845 240.283C159.858 230.535 154.19 218.585 138.508 212.985C130.592 210.159 122.59 208.493 114.883 207.166C107.201 205.844 99.7579 204.851 93.0774 203.377C86.3853 201.901 80.352 199.922 75.4475 196.578C70.5216 193.22 66.769 188.507 64.6047 181.638C60.2771 167.901 64.7811 156.875 73.052 146.683C77.181 141.595 82.2625 136.696 87.6731 131.754C93.0962 126.801 98.836 121.816 104.344 116.513C109.738 111.319 112.436 104.797 113.962 97.7315C115.493 90.6425 115.831 83.0962 116.557 75.8067C117.279 68.5593 118.387 61.582 121.508 55.8351C124.65 50.0511 129.808 45.5527 138.519 43.2159ZM181.448 59.0997C169.39 48.0866 156.325 39.82 138.918 44.4894C130.54 46.737 125.674 51.018 122.703 56.4874C119.712 61.9941 118.619 68.7461 117.898 75.9815C117.181 83.175 116.832 90.8669 115.281 98.0499C113.724 105.256 110.943 112.041 105.307 117.469C99.7846 122.786 94.0018 127.809 88.6116 132.733C83.2091 137.667 78.1855 142.515 74.1184 147.526C65.9969 157.535 61.7428 168.125 65.8909 181.292C67.9646 187.874 71.5278 192.328 76.1887 195.506C80.8711 198.699 86.6973 200.628 93.3264 202.091C99.9671 203.556 107.31 204.532 115.069 205.867C122.803 207.199 130.899 208.882 138.929 211.749C155.14 217.538 161.106 230.02 167.939 239.553C171.373 244.344 175.011 248.394 180.24 250.711C185.461 253.025 192.378 253.658 202.451 251.375C212.502 249.097 219.225 245.074 223.895 239.988C228.572 234.895 231.232 228.691 233.074 221.979C234.924 215.242 235.927 208.096 237.355 201.038C238.775 194.017 240.607 187.137 244.114 181.122C251.08 169.172 260.758 162.457 268.028 155.609C271.679 152.17 274.734 148.697 276.651 144.494C278.562 140.305 279.362 135.344 278.426 128.9C276.571 116.125 267.96 109.033 256.438 103.732C250.669 101.077 244.208 98.8902 237.543 96.6681C230.892 94.4503 224.04 92.2 217.552 89.4269C210.978 86.6171 204.954 81.7591 199.09 76.2677C196.155 73.5194 193.247 70.5985 190.325 67.6837C187.401 64.7653 184.46 61.8515 181.448 59.0997ZM142.973 57.9308C158.582 53.7437 170.266 61.2448 180.703 70.7784C183.314 73.1633 185.857 75.685 188.368 78.1905C190.883 80.6997 193.365 83.1916 195.866 85.5343C200.875 90.2245 205.912 94.2638 211.338 96.5831C216.85 98.939 222.678 100.855 228.405 102.765C234.118 104.67 239.734 106.57 244.764 108.884C254.838 113.519 262.708 119.891 264.39 131.476C265.223 137.211 264.516 141.703 262.772 145.528C261.033 149.341 258.282 152.447 255.106 155.439C248.719 161.455 240.646 167.018 234.777 177.087C231.865 182.082 230.321 187.834 229.108 193.833C227.901 199.796 227.013 206.062 225.412 211.895C223.804 217.752 221.454 223.277 217.264 227.84C213.066 232.411 207.064 235.974 198.229 237.977C189.417 239.974 183.172 239.464 178.347 237.325C173.53 235.19 170.237 231.476 167.249 227.308C161.238 218.921 156.392 208.697 142.962 203.901C136.172 201.477 129.306 200.047 122.69 198.908C116.098 197.774 109.698 196.92 103.958 195.653C98.2069 194.385 93.0119 192.681 88.7844 189.799C84.5356 186.902 81.2998 182.837 79.4348 176.918C75.7056 165.081 79.591 155.581 86.7044 146.816C90.2548 142.44 94.6234 138.229 99.2708 133.984C103.93 129.729 108.856 125.451 113.585 120.898C118.2 116.454 120.51 110.872 121.819 104.815C123.132 98.7335 123.421 92.2628 124.045 85.9962C124.665 79.7717 125.618 73.7638 128.308 68.8116C131.018 63.8222 135.468 59.9439 142.973 57.9308ZM179.804 71.7276C169.456 62.2755 158.27 55.2068 143.372 59.2032C136.201 61.1271 132.042 64.7882 129.503 69.463C126.944 74.1751 126.006 79.9581 125.387 86.171C124.772 92.3416 124.473 98.9569 123.139 105.132C121.8 111.331 119.406 117.177 114.548 121.855C109.805 126.422 104.835 130.738 100.208 134.964C95.5694 139.201 91.26 143.361 87.7717 147.659C80.8077 156.241 77.1705 165.304 80.72 176.571C82.4945 182.204 85.5426 186.009 89.5266 188.726C93.5321 191.457 98.5197 193.111 104.208 194.366C109.908 195.624 116.207 196.462 122.875 197.609C129.519 198.753 136.479 200.198 143.383 202.663C157.342 207.648 162.487 218.405 168.343 226.576C171.289 230.686 174.401 234.147 178.865 236.126C183.323 238.102 189.241 238.649 197.879 236.691C206.495 234.738 212.251 231.29 216.247 226.939C220.25 222.579 222.53 217.266 224.111 211.509C225.698 205.727 226.559 199.6 227.786 193.531C229.007 187.499 230.581 181.58 233.6 176.401C239.591 166.124 247.921 160.342 254.153 154.472C257.285 151.521 259.898 148.548 261.537 144.954C263.171 141.373 263.857 137.132 263.056 131.613C261.47 120.689 254.11 114.62 244.229 110.073C239.281 107.797 233.737 105.92 228.013 104.012C222.302 102.108 216.414 100.173 210.837 97.7892C205.175 95.3691 199.991 91.1886 194.953 86.4708C192.432 84.1093 189.932 81.5985 187.424 79.0958C184.912 76.5897 182.389 74.089 179.804 71.7276ZM146.365 69.1407C160.064 65.4663 170.315 72.0553 179.45 80.3995C181.736 82.487 183.962 84.6934 186.158 86.8849C188.358 89.0798 190.527 91.2579 192.714 93.3058C197.093 97.4066 201.489 100.932 206.221 102.954C211.039 105.013 216.134 106.689 221.144 108.359C226.141 110.026 231.058 111.688 235.462 113.715C244.287 117.775 251.202 123.367 252.679 133.542C253.409 138.573 252.789 142.518 251.256 145.879C249.729 149.227 247.315 151.953 244.533 154.572C238.937 159.844 231.892 164.697 226.766 173.491C224.226 177.849 222.878 182.87 221.817 188.115C220.763 193.325 219.985 198.814 218.583 203.919C217.175 209.049 215.115 213.894 211.438 217.899C207.754 221.91 202.487 225.033 194.745 226.788C187.027 228.538 181.544 228.094 177.301 226.213C173.065 224.335 170.173 221.072 167.557 217.422C162.289 210.072 158.069 201.163 146.356 196.98C140.423 194.861 134.423 193.612 128.638 192.616C122.877 191.625 117.273 190.876 112.25 189.768C107.215 188.657 102.657 187.165 98.9456 184.634C95.2125 182.089 92.3706 178.517 90.7336 173.321C87.4605 162.932 90.8735 154.595 97.1047 146.916C100.214 143.084 104.04 139.397 108.106 135.684C112.183 131.959 116.489 128.22 120.624 124.238C124.645 120.366 126.662 115.501 127.805 110.211C128.953 104.898 129.204 99.2456 129.751 93.7579C130.294 88.3127 131.128 83.044 133.489 78.6974C135.87 74.3134 139.781 70.9072 146.365 69.1407ZM178.551 81.3487C169.505 73.086 159.753 66.9304 146.766 70.4142C140.514 72.0914 136.894 75.2794 134.684 79.3487C132.453 83.4555 131.633 88.4999 131.092 93.9337C130.555 99.3252 130.292 105.121 129.124 110.528C127.951 115.959 125.852 121.089 121.588 125.195C117.438 129.191 113.088 132.969 109.043 136.663C104.986 140.369 101.22 144.005 98.1721 147.76C92.0901 155.255 88.9252 163.156 92.0188 172.976C93.5653 177.884 96.2195 181.197 99.6877 183.562C103.177 185.941 107.528 187.385 112.499 188.482C117.483 189.581 122.986 190.313 128.823 191.317C134.637 192.318 140.73 193.583 146.776 195.742C159.019 200.114 163.538 209.557 168.651 216.691C171.225 220.282 173.935 223.293 177.819 225.015C181.695 226.733 186.851 227.213 194.396 225.503C201.918 223.798 206.939 220.79 210.422 216.997C213.912 213.197 215.901 208.562 217.281 203.532C218.669 198.478 219.419 193.128 220.494 187.814C221.562 182.535 222.943 177.347 225.59 172.806C230.838 163.803 238.14 158.732 243.581 153.607C246.319 151.028 248.595 148.435 250.023 145.306C251.444 142.189 252.044 138.493 251.345 133.68C249.963 124.166 243.558 118.877 234.927 114.905C230.604 112.916 225.76 111.275 220.752 109.606C215.758 107.94 210.604 106.248 205.722 104.161C200.754 102.038 196.21 98.3718 191.801 94.2433C189.594 92.1765 187.407 89.9798 185.213 87.7911C183.016 85.599 180.811 83.4127 178.551 81.3487ZM149.621 79.8966C161.486 76.7139 170.362 82.427 178.248 89.63C180.222 91.4323 182.144 93.3373 184.038 95.2276C185.936 97.1214 187.805 98.9996 189.69 100.765C193.465 104.3 197.248 107.33 201.314 109.067C205.465 110.842 209.854 112.285 214.176 113.727C218.485 115.164 222.732 116.6 226.537 118.351C234.162 121.859 240.161 126.703 241.442 135.525C242.074 139.879 241.539 143.3 240.209 146.216C238.885 149.119 236.793 151.478 234.391 153.74C229.553 158.297 223.494 162.468 219.08 170.039C216.897 173.785 215.736 178.105 214.822 182.627C213.914 187.113 213.24 191.859 212.031 196.266C210.814 200.697 209.033 204.892 205.848 208.359C202.656 211.835 198.097 214.536 191.405 216.053C184.735 217.565 179.982 217.184 176.297 215.551C172.619 213.921 170.113 211.088 167.854 207.936C163.299 201.581 159.679 193.933 149.612 190.338C144.502 188.514 139.333 187.437 134.345 186.578C129.381 185.724 124.54 185.078 120.204 184.121C115.857 183.162 111.911 181.872 108.695 179.679C105.456 177.471 102.993 174.372 101.574 169.87C98.7388 160.869 101.7 153.648 107.085 147.012C109.771 143.702 113.075 140.519 116.582 137.316C120.102 134.101 123.813 130.877 127.379 127.443C130.831 124.119 132.566 119.94 133.549 115.387C134.537 110.81 134.754 105.946 135.226 101.206C135.694 96.5084 136.415 91.9485 138.46 88.1827C140.526 84.3796 143.919 81.4264 149.621 79.8966ZM177.349 90.5782C169.552 83.457 161.175 78.1784 150.022 81.17C144.652 82.6106 141.549 85.3456 139.655 88.8341C137.74 92.3599 137.034 96.6958 136.567 101.382C136.104 106.026 135.876 111.035 134.867 115.705C133.854 120.399 132.037 124.842 128.342 128.4C124.761 131.847 121.007 135.109 117.521 138.294C114.022 141.49 110.777 144.622 108.153 147.856C102.917 154.308 100.203 161.093 102.86 169.525C104.187 173.739 106.463 176.578 109.437 178.606C112.432 180.648 116.17 181.89 120.454 182.835C124.75 183.783 129.49 184.412 134.531 185.279C139.547 186.143 144.809 187.236 150.032 189.101C160.629 192.885 164.547 201.067 168.947 207.205C171.164 210.299 173.49 212.879 176.816 214.353C180.134 215.823 184.559 216.24 191.055 214.768C197.528 213.3 201.841 210.714 204.831 207.457C207.829 204.193 209.54 200.21 210.729 195.879C211.924 191.523 212.571 186.918 213.499 182.326C214.421 177.771 215.613 173.283 217.904 169.354C222.439 161.574 228.755 157.184 233.438 152.774C235.796 150.552 237.751 148.325 238.976 145.641C240.194 142.969 240.709 139.8 240.109 135.663C238.924 127.502 233.433 122.959 226.001 119.54C222.278 117.827 218.104 116.413 213.784 114.973C209.478 113.537 205.027 112.075 200.812 110.274C196.511 108.435 192.582 105.264 188.778 101.701C186.873 99.9172 184.985 98.0204 183.093 96.1329C181.198 94.242 179.296 92.357 177.349 90.5782ZM154.563 96.2218C163.644 93.7857 170.435 98.1697 176.425 103.641C177.924 105.01 179.382 106.457 180.819 107.89C182.258 109.326 183.673 110.747 185.1 112.083C187.959 114.76 190.809 117.042 193.863 118.347C197.002 119.689 200.323 120.781 203.602 121.874C206.868 122.963 210.096 124.055 212.99 125.387C218.795 128.057 223.405 131.766 224.388 138.533C224.871 141.861 224.463 144.485 223.441 146.726C222.425 148.953 220.822 150.758 218.995 152.479C215.309 155.951 210.747 159.087 207.415 164.802C205.773 167.62 204.896 170.874 204.203 174.299C203.518 177.687 203.004 181.3 202.085 184.648C201.16 188.02 199.801 191.226 197.364 193.88C194.919 196.542 191.432 198.604 186.331 199.76C181.254 200.911 177.611 200.626 174.773 199.368C171.942 198.113 170.02 195.936 168.302 193.539C164.83 188.695 162.122 182.961 154.553 180.258C150.693 178.88 146.785 178.066 143.006 177.415C139.252 176.769 135.57 176.276 132.279 175.55C128.975 174.821 125.958 173.838 123.492 172.157C121.005 170.461 119.114 168.079 118.028 164.632C115.856 157.739 118.132 152.212 122.233 147.158C124.277 144.639 126.789 142.219 129.449 139.789C132.122 137.348 134.93 134.909 137.632 132.308C140.22 129.816 141.524 126.679 142.266 123.244C143.013 119.786 143.176 116.116 143.535 112.511C143.89 108.948 144.438 105.462 146.004 102.578C147.591 99.657 150.199 97.3924 154.563 96.2218ZM175.525 104.59C169.624 99.2006 163.333 95.2491 154.963 97.4942C150.932 98.5757 148.614 100.624 147.198 103.231C145.763 105.875 145.23 109.134 144.876 112.686C144.527 116.195 144.352 120.01 143.585 123.563C142.813 127.139 141.426 130.539 138.595 133.265C135.879 135.88 133.027 138.358 130.388 140.769C127.736 143.191 125.282 145.559 123.3 148.002C119.349 152.872 117.322 157.963 119.314 164.286C120.309 167.446 122.012 169.568 124.235 171.083C126.478 172.613 129.288 173.55 132.529 174.265C135.781 174.982 139.362 175.457 143.193 176.116C146.999 176.772 151 177.602 154.974 179.021C163.072 181.913 166.079 188.181 169.396 192.809C171.072 195.147 172.812 197.072 175.29 198.171C177.762 199.266 181.078 199.586 185.982 198.475C190.863 197.368 194.103 195.421 196.346 192.979C198.596 190.529 199.885 187.535 200.783 184.263C201.688 180.966 202.174 177.491 202.881 173.997C203.58 170.54 204.489 167.118 206.239 164.116C209.691 158.193 214.511 154.838 218.042 151.512C219.825 149.833 221.291 148.16 222.207 146.151C223.118 144.155 223.506 141.782 223.054 138.672C222.167 132.565 218.067 129.158 212.456 126.576C209.643 125.282 206.487 124.213 203.21 123.12C199.947 122.032 196.565 120.921 193.362 119.552C190.072 118.146 187.076 115.724 184.188 113.02C182.741 111.665 181.308 110.225 179.874 108.795C178.437 107.361 176.998 105.936 175.525 104.59ZM159.102 111.217C165.626 109.467 170.501 112.63 174.749 116.51C175.813 117.481 176.847 118.508 177.863 119.521C178.881 120.537 179.879 121.539 180.884 122.481C182.901 124.369 184.895 125.961 187.02 126.869C189.23 127.814 191.568 128.584 193.889 129.358C196.196 130.127 198.49 130.903 200.548 131.85C204.68 133.751 208.014 136.417 208.723 141.299C209.069 143.683 208.778 145.575 208.039 147.194C207.306 148.801 206.152 150.097 204.855 151.319C202.225 153.796 199.037 155.98 196.699 159.99C195.554 161.956 194.939 164.233 194.45 166.65C193.969 169.03 193.602 171.605 192.95 173.979C192.292 176.377 191.32 178.675 189.57 180.581C187.812 182.495 185.311 183.97 181.673 184.795C178.058 185.615 175.434 185.419 173.373 184.506C171.32 183.596 169.935 182.018 168.714 180.315C166.237 176.858 164.366 172.882 159.092 170.999C156.38 170.031 153.631 169.458 150.963 168.999C148.32 168.544 145.702 168.193 143.368 167.678C141.024 167.161 138.86 166.458 137.084 165.247C135.287 164.022 133.923 162.301 133.142 159.821C131.58 154.864 133.225 150.892 136.147 147.292C137.601 145.5 139.386 143.782 141.268 142.064C143.162 140.333 145.141 138.614 147.049 136.776C148.843 135.049 149.754 132.871 150.274 130.463C150.799 128.032 150.912 125.458 151.167 122.895C151.418 120.374 151.808 117.877 152.935 115.803C154.082 113.691 155.968 112.058 159.102 111.217ZM173.849 117.459C169.69 113.661 165.316 110.931 159.502 112.49C156.701 113.242 155.105 114.657 154.129 116.454C153.133 118.288 152.758 120.561 152.508 123.07C152.262 125.537 152.137 128.255 151.592 130.78C151.042 133.329 150.049 135.772 148.012 137.733C146.089 139.585 144.067 141.342 142.205 143.042C140.332 144.753 138.605 146.42 137.213 148.136C134.441 151.552 133.046 155.088 134.428 159.475C135.119 161.667 136.295 163.13 137.827 164.175C139.381 165.234 141.337 165.889 143.618 166.393C145.912 166.899 148.429 167.232 151.149 167.7C153.844 168.164 156.686 168.754 159.512 169.763C165.315 171.835 167.485 176.344 169.808 179.584C170.987 181.229 172.191 182.553 173.892 183.307C175.586 184.057 177.881 184.29 181.323 183.51C184.743 182.735 186.998 181.375 188.554 179.68C190.117 177.978 191.018 175.891 191.649 173.593C192.286 171.27 192.625 168.833 193.128 166.348C193.624 163.899 194.27 161.455 195.523 159.306C197.982 155.087 201.428 152.684 203.903 150.354C205.157 149.172 206.173 148.009 206.806 146.62C207.433 145.245 207.704 143.604 207.389 141.437C206.776 137.215 203.951 134.851 200.012 133.039C198.035 132.13 195.815 131.376 193.497 130.604C191.193 129.835 188.793 129.047 186.519 128.075C184.159 127.067 182.019 125.333 179.973 123.417C178.947 122.456 177.931 121.436 176.918 120.426C175.902 119.412 174.887 118.407 173.849 117.459ZM163.281 125.021C167.452 123.902 170.562 125.941 173.206 128.357C173.869 128.962 174.512 129.6 175.14 130.227C175.771 130.857 176.386 131.473 177.004 132.052C178.246 133.215 179.451 134.172 180.72 134.715C182.075 135.294 183.51 135.767 184.948 136.246C186.374 136.721 187.806 137.205 189.095 137.798C191.687 138.991 193.845 140.698 194.302 143.843C194.522 145.359 194.34 146.578 193.862 147.626C193.389 148.662 192.648 149.488 191.837 150.252C190.181 151.812 188.259 153.121 186.836 155.562C186.148 156.742 185.774 158.119 185.473 159.608C185.179 161.06 184.947 162.679 184.541 164.157C184.129 165.66 183.514 167.122 182.396 168.34C181.27 169.565 179.676 170.498 177.384 171.018C175.115 171.532 173.43 171.419 172.085 170.823C170.748 170.231 169.856 169.206 169.093 168.142C167.531 165.963 166.431 163.605 163.271 162.477C161.615 161.885 159.932 161.533 158.287 161.25C156.667 160.971 155.028 160.752 153.577 160.432C152.115 160.109 150.738 159.665 149.597 158.888C148.435 158.095 147.555 156.981 147.055 155.393C146.055 152.218 147.119 149.678 148.954 147.416C149.866 146.293 150.98 145.22 152.146 144.155C153.324 143.079 154.54 142.024 155.718 140.89C156.781 139.866 157.329 138.569 157.645 137.107C157.966 135.621 158.034 134.056 158.194 132.452C158.349 130.891 158.593 129.304 159.315 127.976C160.057 126.61 161.279 125.558 163.281 125.021ZM172.306 129.305C169.751 126.971 167.14 125.365 163.68 126.293C162.011 126.741 161.08 127.576 160.509 128.627C159.918 129.716 159.689 131.078 159.534 132.628C159.384 134.136 159.304 135.845 158.963 137.425C158.617 139.028 157.987 140.589 156.681 141.847C155.489 142.995 154.229 144.09 153.084 145.136C151.927 146.193 150.871 147.213 150.022 148.26C148.336 150.337 147.52 152.441 148.34 155.046C148.75 156.347 149.442 157.203 150.339 157.815C151.258 158.441 152.428 158.837 153.827 159.146C155.238 159.457 156.776 159.659 158.473 159.951C160.145 160.239 161.92 160.608 163.69 161.239C167.38 162.557 168.78 165.448 170.187 167.411C170.908 168.417 171.618 169.188 172.603 169.624C173.58 170.057 174.938 170.208 177.034 169.733C179.107 169.263 180.454 168.444 181.378 167.438C182.309 166.424 182.854 165.174 183.24 163.772C183.631 162.345 183.836 160.863 184.151 159.306C184.458 157.785 184.865 156.241 185.66 154.877C187.204 152.228 189.384 150.7 190.885 149.286C191.652 148.564 192.255 147.869 192.627 147.052C192.994 146.248 193.158 145.28 192.969 143.982C192.608 141.496 190.958 140.091 188.559 138.987C187.352 138.432 185.992 137.972 184.556 137.493C183.133 137.019 181.638 136.527 180.219 135.921C178.714 135.278 177.362 134.18 176.091 132.989C175.453 132.392 174.821 131.757 174.196 131.133C173.567 130.506 172.943 129.887 172.306 129.305ZM166.302 135.004C168.771 134.342 170.605 135.568 172.09 136.924C172.463 137.264 172.825 137.622 173.173 137.969C173.524 138.319 173.86 138.657 174.198 138.974C174.879 139.612 175.514 140.111 176.164 140.389C176.9 140.703 177.682 140.961 178.483 141.228C179.27 141.49 180.08 141.764 180.812 142.101C182.291 142.781 183.601 143.794 183.875 145.684C184.004 146.572 183.897 147.303 183.608 147.939C183.324 148.561 182.882 149.048 182.423 149.481C181.471 150.377 180.463 151.054 179.702 152.359C179.345 152.972 179.145 153.698 178.98 154.515C178.822 155.296 178.687 156.224 178.459 157.054C178.225 157.908 177.869 158.765 177.207 159.485C176.539 160.213 175.601 160.757 174.282 161.056C172.987 161.349 171.98 161.294 171.154 160.928C170.334 160.565 169.8 159.941 169.367 159.338C168.468 158.083 167.925 156.896 166.292 156.313C165.4 155.994 164.488 155.803 163.583 155.648C162.703 155.496 161.773 155.37 160.96 155.191C160.136 155.009 159.327 154.753 158.646 154.288C157.943 153.809 157.413 153.133 157.115 152.19C156.522 150.304 157.167 148.8 158.217 147.506C158.736 146.867 159.366 146.261 160.014 145.669C160.674 145.066 161.338 144.49 161.987 143.865C162.521 143.35 162.807 142.69 162.975 141.911C163.148 141.109 163.184 140.275 163.275 139.365C163.361 138.498 163.498 137.569 163.927 136.779C164.376 135.953 165.119 135.321 166.302 135.004ZM171.191 137.872C169.795 136.598 168.46 135.805 166.702 136.276C165.852 136.505 165.401 136.919 165.122 137.431C164.824 137.98 164.701 138.686 164.615 139.541C164.534 140.355 164.488 141.335 164.294 142.231C164.096 143.15 163.728 144.073 162.95 144.821C162.287 145.46 161.579 146.076 160.952 146.649C160.313 147.232 159.741 147.787 159.284 148.35C158.384 149.459 157.988 150.527 158.403 151.843C158.609 152.5 158.95 152.916 159.388 153.215C159.847 153.528 160.449 153.737 161.21 153.904C161.983 154.075 162.813 154.184 163.77 154.349C164.702 154.509 165.707 154.716 166.712 155.075C168.875 155.847 169.716 157.568 170.461 158.608C170.851 159.152 171.204 159.523 171.671 159.73C172.131 159.933 172.81 160.024 173.933 159.77C175.032 159.52 175.724 159.093 176.191 158.584C176.665 158.068 176.95 157.423 177.157 156.668C177.371 155.889 177.478 155.099 177.657 154.213C177.829 153.363 178.063 152.471 178.528 151.674C179.41 150.16 180.675 149.264 181.472 148.514C181.887 148.123 182.19 147.768 182.374 147.364C182.553 146.973 182.639 146.492 182.541 145.821C182.363 144.592 181.561 143.882 180.276 143.29C179.625 142.991 178.889 142.741 178.091 142.475C177.306 142.213 176.464 141.936 175.663 141.594C174.778 141.215 173.995 140.577 173.284 139.911C172.926 139.576 172.573 139.219 172.228 138.875C171.879 138.528 171.538 138.189 171.191 137.872Z" fill="var(--fill-0, white)" fill-opacity="0.8"/>
</g>
</g>
</g>
<defs>
<filter id="filter0_f_0_15" x="27.4044" y="6.6652" width="289.112" height="282.589" filterUnits="userSpaceOnUse" color-interpolation-filters="sRGB">
<feFlood flood-opacity="0" result="BackgroundImageFix"/>
<feBlend mode="normal" in="SourceGraphic" in2="BackgroundImageFix" result="shape"/>
<feGaussianBlur stdDeviation="0.740648" result="effect1_foregroundBlur_0_15"/>
</filter>
</defs>
</svg>
