<svg width="21" height="15" viewBox="0 0 21 15" fill="none" xmlns="http://www.w3.org/2000/svg">
<path d="M16.2675 0L18.118 1.76446L15.7941 4.26053C16.3105 5.00649 16.9274 5.78113 17.6446 6.58446C18.3906 7.38779 19.2513 8.23416 20.2268 9.12357C19.4808 9.9269 18.6488 10.7302 17.7307 11.5336C16.8126 12.3082 15.9662 12.9681 15.1916 13.5132C14.1874 12.2221 13.2407 10.9167 12.3512 9.59696C11.4618 8.24851 10.6442 6.9144 9.89821 5.59464C10.9024 4.79131 11.9496 3.9019 13.0398 2.92643C14.1587 1.95095 15.2346 0.975475 16.2675 0ZM6.36928 1.29107L8.21982 3.05553L5.89589 5.55161C6.41232 6.29756 7.02916 7.0722 7.74643 7.87553C8.49238 8.67887 9.35309 9.52524 10.3286 10.4146C9.58262 11.218 8.75059 12.0213 7.8325 12.8246C6.9144 13.5993 6.06803 14.2592 5.29339 14.8043C4.28923 13.5132 3.34244 12.2078 2.45304 10.888C1.56363 9.53958 0.745952 8.20547 0 6.88571C1.00417 6.08238 2.05137 5.19297 3.14161 4.2175C4.26053 3.24202 5.33643 2.26655 6.36928 1.29107Z" fill="#DDE2E8"/>
</svg>
